<svg width="228" height="72" viewBox="0 0 228 72" fill="none" xmlns="http://www.w3.org/2000/svg">
<path d="M1.26439 7.91193H4.4661V17H5.69905V7.91193H8.90076V6.81818H1.26439V7.91193ZM12.6394 17.1591C14.7076 17.1591 16.0996 15.5881 16.0996 13.2216C16.0996 10.8352 14.7076 9.2642 12.6394 9.2642C10.5712 9.2642 9.17917 10.8352 9.17917 13.2216C9.17917 15.5881 10.5712 17.1591 12.6394 17.1591ZM12.6394 16.1051C11.0684 16.1051 10.3525 14.7528 10.3525 13.2216C10.3525 11.6903 11.0684 10.3182 12.6394 10.3182C14.2104 10.3182 14.9263 11.6903 14.9263 13.2216C14.9263 14.7528 14.2104 16.1051 12.6394 16.1051ZM21.2117 9.36364H19.581V7.53409H18.4077V9.36364H17.2543V10.358H18.4077V15.1307C18.4077 16.4631 19.4815 17.0994 20.4759 17.0994C20.9134 17.0994 21.1918 17.0199 21.3509 16.9602L21.1122 15.9062C21.0128 15.9261 20.8537 15.9659 20.5952 15.9659C20.0781 15.9659 19.581 15.8068 19.581 14.8125V10.358H21.2117V9.36364ZM25.2237 17.179C26.5561 17.179 27.2521 16.4631 27.4908 15.9659H27.5504V17H28.7237V11.9688C28.7237 9.54261 26.8743 9.2642 25.8999 9.2642C24.7465 9.2642 23.434 9.66193 22.8374 11.054L23.951 11.4517C24.2095 10.8949 24.821 10.2983 25.9396 10.2983C27.0185 10.2983 27.5504 10.87 27.5504 11.8494V11.8892C27.5504 12.456 26.9737 12.4062 25.5817 12.5852C24.1648 12.7692 22.6186 13.0824 22.6186 14.8324C22.6186 16.3239 23.772 17.179 25.2237 17.179ZM25.4027 16.125C24.4681 16.125 23.7919 15.7074 23.7919 14.892C23.7919 13.9972 24.6073 13.7188 25.522 13.5994C26.0192 13.5398 27.3516 13.4006 27.5504 13.1619V14.2358C27.5504 15.1903 26.7948 16.125 25.4027 16.125ZM32.0385 6.81818H30.8652V17H32.0385V6.81818ZM41.2273 17.1591C43.2955 17.1591 44.6875 15.5881 44.6875 13.2216C44.6875 10.8352 43.2955 9.2642 41.2273 9.2642C39.1591 9.2642 37.7671 10.8352 37.7671 13.2216C37.7671 15.5881 39.1591 17.1591 41.2273 17.1591ZM41.2273 16.1051C39.6563 16.1051 38.9404 14.7528 38.9404 13.2216C38.9404 11.6903 39.6563 10.3182 41.2273 10.3182C42.7983 10.3182 43.5142 11.6903 43.5142 13.2216C43.5142 14.7528 42.7983 16.1051 41.2273 16.1051ZM46.4785 17H47.6518V12.1676C47.6518 11.1335 48.4672 10.3778 49.5808 10.3778C49.894 10.3778 50.2172 10.4375 50.2967 10.4574V9.2642C50.1625 9.25426 49.8542 9.24432 49.6802 9.24432C48.7655 9.24432 47.97 9.76136 47.6916 10.517H47.612V9.36364H46.4785V17ZM54.3386 17.1591C55.8102 17.1591 56.3074 16.2443 56.5659 15.8267H56.7051V17H57.8386V6.81818H56.6653V10.5767H56.5659C56.3074 10.179 55.85 9.2642 54.3585 9.2642C52.4295 9.2642 51.0971 10.7955 51.0971 13.2017C51.0971 15.6278 52.4295 17.1591 54.3386 17.1591ZM54.4977 16.1051C53.0261 16.1051 52.2704 14.8125 52.2704 13.1818C52.2704 11.571 53.0062 10.3182 54.4977 10.3182C55.9295 10.3182 56.6852 11.4716 56.6852 13.1818C56.6852 14.9119 55.9096 16.1051 54.4977 16.1051ZM63.3521 17.1591C64.9032 17.1591 66.0368 16.3835 66.3947 15.2301L65.2612 14.9119C64.9629 15.7074 64.2719 16.1051 63.3521 16.1051C61.975 16.1051 61.0254 15.2152 60.9707 13.5795H66.514V13.0824C66.514 10.2386 64.8237 9.2642 63.2328 9.2642C61.1646 9.2642 59.7924 10.8949 59.7924 13.2415C59.7924 15.5881 61.1447 17.1591 63.3521 17.1591ZM60.9707 12.5653C61.0503 11.3771 61.8905 10.3182 63.2328 10.3182C64.5055 10.3182 65.3209 11.2727 65.3209 12.5653H60.9707ZM68.2988 17H69.4721V12.1676C69.4721 11.1335 70.2875 10.3778 71.4011 10.3778C71.7143 10.3778 72.0375 10.4375 72.117 10.4574V9.2642C71.9828 9.25426 71.6745 9.24432 71.5005 9.24432C70.5858 9.24432 69.7903 9.76136 69.5119 10.517H69.4324V9.36364H68.2988V17ZM78.9169 11.0739C78.549 9.99006 77.7237 9.2642 76.2124 9.2642C74.6016 9.2642 73.4084 10.179 73.4084 11.4716C73.4084 12.5256 74.0348 13.2315 75.4368 13.5597L76.7095 13.858C77.4801 14.0369 77.8431 14.4048 77.8431 14.9318C77.8431 15.5881 77.147 16.125 76.0533 16.125C75.0938 16.125 74.4922 15.7124 74.2834 14.892L73.1698 15.1705C73.4432 16.468 74.5121 17.1591 76.0732 17.1591C77.848 17.1591 79.0561 16.1896 79.0561 14.8722C79.0561 13.8082 78.3899 13.1371 77.0277 12.804L75.8942 12.5256C74.9894 12.3018 74.5817 11.9986 74.5817 11.4119C74.5817 10.7557 75.2777 10.2784 76.2124 10.2784C77.2365 10.2784 77.6591 10.8452 77.8629 11.3722L78.9169 11.0739ZM88.0808 9.36364H86.4501V7.53409H85.2768V9.36364H84.1234V10.358H85.2768V15.1307C85.2768 16.4631 86.3507 17.0994 87.345 17.0994C87.7825 17.0994 88.0609 17.0199 88.22 16.9602L87.9814 15.9062C87.8819 15.9261 87.7228 15.9659 87.4643 15.9659C86.9473 15.9659 86.4501 15.8068 86.4501 14.8125V10.358H88.0808V9.36364ZM91.1831 12.4062C91.1831 11.0739 92.0332 10.3182 93.1916 10.3182C94.2953 10.3182 94.9615 11.0142 94.9615 12.2273V17H96.1348V12.1477C96.1348 10.1839 95.0907 9.2642 93.5297 9.2642C92.3265 9.2642 91.6405 9.76633 91.2825 10.5568H91.1831V6.81818H90.0098V17H91.1831V12.4062ZM98.2813 17H99.4546V9.36364H98.2813V17ZM98.8779 8.09091C99.3352 8.09091 99.7131 7.73295 99.7131 7.29545C99.7131 6.85795 99.3352 6.5 98.8779 6.5C98.4205 6.5 98.0426 6.85795 98.0426 7.29545C98.0426 7.73295 98.4205 8.09091 98.8779 8.09091ZM107.013 11.0739C106.645 9.99006 105.819 9.2642 104.308 9.2642C102.697 9.2642 101.504 10.179 101.504 11.4716C101.504 12.5256 102.131 13.2315 103.533 13.5597L104.805 13.858C105.576 14.0369 105.939 14.4048 105.939 14.9318C105.939 15.5881 105.243 16.125 104.149 16.125C103.189 16.125 102.588 15.7124 102.379 14.892L101.265 15.1705C101.539 16.468 102.608 17.1591 104.169 17.1591C105.944 17.1591 107.152 16.1896 107.152 14.8722C107.152 13.8082 106.486 13.1371 105.123 12.804L103.99 12.5256C103.085 12.3018 102.677 11.9986 102.677 11.4119C102.677 10.7557 103.373 10.2784 104.308 10.2784C105.332 10.2784 105.755 10.8452 105.959 11.3722L107.013 11.0739ZM112.855 17H114.029V12.2273C114.029 11.1087 114.844 10.3182 115.759 10.3182C116.649 10.3182 117.27 10.8999 117.27 11.7699V17H118.463V12.0284C118.463 11.044 119.08 10.3182 120.154 10.3182C120.989 10.3182 121.705 10.7607 121.705 11.8892V17H122.878V11.8892C122.878 10.0945 121.914 9.2642 120.552 9.2642C119.458 9.2642 118.657 9.76633 118.265 10.5568H118.185C117.807 9.74148 117.141 9.2642 116.137 9.2642C115.142 9.2642 114.407 9.74148 114.088 10.5568H113.989V9.36364H112.855V17ZM128.126 17.1591C130.194 17.1591 131.586 15.5881 131.586 13.2216C131.586 10.8352 130.194 9.2642 128.126 9.2642C126.058 9.2642 124.665 10.8352 124.665 13.2216C124.665 15.5881 126.058 17.1591 128.126 17.1591ZM128.126 16.1051C126.555 16.1051 125.839 14.7528 125.839 13.2216C125.839 11.6903 126.555 10.3182 128.126 10.3182C129.697 10.3182 130.413 11.6903 130.413 13.2216C130.413 14.7528 129.697 16.1051 128.126 16.1051ZM134.55 12.4062C134.55 11.0739 135.376 10.3182 136.499 10.3182C137.588 10.3182 138.249 11.0291 138.249 12.2273V17H139.422V12.1477C139.422 10.1989 138.383 9.2642 136.837 9.2642C135.684 9.2642 134.968 9.78125 134.61 10.5568H134.51V9.36364H133.377V17H134.55V12.4062ZM144.887 9.36364H143.257V7.53409H142.083V9.36364H140.93V10.358H142.083V15.1307C142.083 16.4631 143.157 17.0994 144.152 17.0994C144.589 17.0994 144.868 17.0199 145.027 16.9602L144.788 15.9062C144.689 15.9261 144.529 15.9659 144.271 15.9659C143.754 15.9659 143.257 15.8068 143.257 14.8125V10.358H144.887V9.36364ZM147.99 12.4062C147.99 11.0739 148.84 10.3182 149.998 10.3182C151.102 10.3182 151.768 11.0142 151.768 12.2273V17H152.941V12.1477C152.941 10.1839 151.897 9.2642 150.336 9.2642C149.133 9.2642 148.447 9.76633 148.089 10.5568H147.99V6.81818H146.816V17H147.99V12.4062Z" fill="#6E8BB7"/>
<path d="M7.48314 63.1818H9.49451L9.51155 61.2131C13.2019 60.9318 15.3411 58.9716 15.3496 56.0142C15.3411 53.108 13.1508 51.5653 10.1167 50.8835L9.61383 50.7642L9.64792 46.5028C10.7814 46.767 11.4718 47.4915 11.5741 48.5653H15.111C15.0684 45.7443 12.9633 43.7244 9.68201 43.3665L9.69905 41.3636H7.68769L7.67064 43.3494C4.33826 43.6733 1.98598 45.6847 2.00303 48.5909C1.99451 51.1648 3.80985 52.6392 6.75871 53.3466L7.57689 53.5511L7.53428 58.0597C6.14508 57.7955 5.20758 56.9432 5.11383 55.5199H1.5428C1.62803 58.9631 3.88655 60.8892 7.50019 61.2045L7.48314 63.1818ZM9.54564 58.0597L9.57973 54.0795C10.9008 54.4972 11.6167 55.0341 11.6252 56.0057C11.6167 57.0369 10.8326 57.804 9.54564 58.0597ZM7.60246 50.2443C6.53712 49.8778 5.77008 49.3239 5.78712 48.3438C5.78712 47.4318 6.43485 46.7244 7.63655 46.4773L7.60246 50.2443ZM25.3233 43.5455H21.8546L17.5336 46.2812V49.554L21.5307 47.0483H21.633V61H25.3233V43.5455ZM29.4718 61H41.915V57.983H34.5854V57.8636L37.1337 55.3665C40.7218 52.0938 41.6848 50.4574 41.6848 48.4716C41.6848 45.446 39.2133 43.3068 35.4718 43.3068C31.807 43.3068 29.2928 45.4972 29.3013 48.9233H32.8042C32.7956 47.2528 33.8525 46.2301 35.4462 46.2301C36.9803 46.2301 38.1223 47.1847 38.1223 48.7188C38.1223 50.108 37.2701 51.0625 35.6848 52.5881L29.4718 58.3409V61ZM48.5691 58.6136H45.5691L45.5265 59.5682C45.4242 61.8864 44.7594 64.2642 44.5123 65.2614H46.8645C47.2736 64.2301 48.2452 61.8097 48.4753 59.5511L48.5691 58.6136ZM51.8887 61H55.6983L62.9427 46.6051V43.5455H50.6955V46.5625H59.1245V46.6818L51.8887 61ZM71.6124 61.2386C75.4988 61.2386 78.1408 58.7074 78.1323 55.179C78.1408 51.8381 75.8056 49.4347 72.6607 49.4347C71.1266 49.4347 69.8056 50.0739 69.192 50.9347H69.0897L69.5414 46.5625H77.1692V43.5455H66.4988L65.6721 52.75L68.9533 53.3381C69.4902 52.6136 70.53 52.1619 71.5613 52.1619C73.317 52.1705 74.5783 53.4403 74.5783 55.2727C74.5783 57.0881 73.3425 58.3409 71.6124 58.3409C70.1465 58.3409 68.9618 57.4205 68.8766 56.0653H65.2971C65.3652 59.0824 67.9988 61.2386 71.6124 61.2386ZM87.5499 61.3835C91.9391 61.3835 94.5897 58.0426 94.5982 52.2898C94.6067 46.5795 91.9221 43.3068 87.5499 43.3068C83.1692 43.3068 80.5101 46.571 80.5016 52.2898C80.4846 58.0256 83.1522 61.375 87.5499 61.3835ZM87.5499 58.3239C85.5471 58.3239 84.2516 56.3125 84.2601 52.2898C84.2687 48.3267 85.5556 46.3324 87.5499 46.3324C89.5357 46.3324 90.8312 48.3267 90.8312 52.2898C90.8397 56.3125 89.5442 58.3239 87.5499 58.3239Z" fill="#303940"/>
<rect x="138.588" y="32" width="89" height="40" rx="12" fill="#1AC19D" fill-opacity="0.15"/>
<path d="M154.516 56.3984H156.077V53.7386H158.737V52.1776H156.077V49.5178H154.516V52.1776H151.856V53.7386H154.516V56.3984ZM165.054 46.8182H163.299L160.769 48.4439V50.1342L163.15 48.6129H163.21V57H165.054V46.8182ZM167.64 57H174.62V55.4588H170.185V55.3892L171.94 53.6044C173.919 51.7053 174.466 50.7805 174.466 49.6321C174.466 47.9268 173.078 46.679 171.03 46.679C169.012 46.679 167.58 47.9318 167.58 49.8658H169.335C169.335 48.8267 169.991 48.1754 171.005 48.1754C171.975 48.1754 172.696 48.767 172.696 49.7266C172.696 50.5767 172.179 51.1832 171.174 52.2024L167.64 55.6676V57ZM181.779 55.0909C181.784 56.2741 182.534 57.2834 183.931 57.2834C185.324 57.2834 186.089 56.2741 186.084 55.0909V54.554C186.089 53.3608 185.343 52.3615 183.931 52.3615C182.554 52.3615 181.784 53.3707 181.779 54.554V55.0909ZM176.603 49.2642C176.608 50.4474 177.359 51.4467 178.761 51.4467C180.148 51.4467 180.914 50.4574 180.909 49.2642V48.7273C180.914 47.5341 180.168 46.5348 178.761 46.5348C177.389 46.5348 176.608 47.5341 176.603 48.7273V49.2642ZM177.051 57H178.299L185.299 46.8182H184.051L177.051 57ZM183.076 54.554C183.081 54.027 183.305 53.495 183.931 53.495C184.588 53.495 184.782 54.027 184.777 54.554V55.0909C184.782 55.6179 184.568 56.1399 183.931 56.1399C183.295 56.1399 183.081 55.6129 183.076 55.0909V54.554ZM177.911 48.7273C177.916 48.2053 178.13 47.6683 178.761 47.6683C179.417 47.6683 179.606 48.2003 179.601 48.7273V49.2642C179.606 49.7912 179.397 50.3132 178.761 50.3132C178.125 50.3132 177.916 49.7912 177.911 49.2642V48.7273Z" fill="#1AC19D"/>
<rect x="195.588" y="40" width="24" height="24" rx="12" fill="#1AC19D" fill-opacity="0.2"/>
<path d="M210.175 53.8067L207.588 51.22L205.002 53.8067C204.742 54.0667 204.322 54.0667 204.062 53.8067C203.802 53.5467 203.802 53.1267 204.062 52.8667L207.122 49.8067C207.382 49.5467 207.802 49.5467 208.062 49.8067L211.122 52.8667C211.382 53.1267 211.382 53.5467 211.122 53.8067C210.862 54.06 210.435 54.0667 210.175 53.8067Z" fill="#1AC19D"/>
</svg>
