<svg width="228" height="72" viewBox="0 0 228 72" fill="none" xmlns="http://www.w3.org/2000/svg">
<path d="M1.26439 7.91193H4.4661V17H5.69905V7.91193H8.90076V6.81818H1.26439V7.91193ZM12.6394 17.1591C14.7076 17.1591 16.0996 15.5881 16.0996 13.2216C16.0996 10.8352 14.7076 9.2642 12.6394 9.2642C10.5712 9.2642 9.17917 10.8352 9.17917 13.2216C9.17917 15.5881 10.5712 17.1591 12.6394 17.1591ZM12.6394 16.1051C11.0684 16.1051 10.3525 14.7528 10.3525 13.2216C10.3525 11.6903 11.0684 10.3182 12.6394 10.3182C14.2104 10.3182 14.9263 11.6903 14.9263 13.2216C14.9263 14.7528 14.2104 16.1051 12.6394 16.1051ZM21.2117 9.36364H19.581V7.53409H18.4077V9.36364H17.2543V10.358H18.4077V15.1307C18.4077 16.4631 19.4815 17.0994 20.4759 17.0994C20.9134 17.0994 21.1918 17.0199 21.3509 16.9602L21.1122 15.9062C21.0128 15.9261 20.8537 15.9659 20.5952 15.9659C20.0781 15.9659 19.581 15.8068 19.581 14.8125V10.358H21.2117V9.36364ZM25.2237 17.179C26.5561 17.179 27.2521 16.4631 27.4908 15.9659H27.5504V17H28.7237V11.9688C28.7237 9.54261 26.8743 9.2642 25.8999 9.2642C24.7465 9.2642 23.434 9.66193 22.8374 11.054L23.951 11.4517C24.2095 10.8949 24.821 10.2983 25.9396 10.2983C27.0185 10.2983 27.5504 10.87 27.5504 11.8494V11.8892C27.5504 12.456 26.9737 12.4062 25.5817 12.5852C24.1648 12.7692 22.6186 13.0824 22.6186 14.8324C22.6186 16.3239 23.772 17.179 25.2237 17.179ZM25.4027 16.125C24.4681 16.125 23.7919 15.7074 23.7919 14.892C23.7919 13.9972 24.6073 13.7188 25.522 13.5994C26.0192 13.5398 27.3516 13.4006 27.5504 13.1619V14.2358C27.5504 15.1903 26.7948 16.125 25.4027 16.125ZM32.0385 6.81818H30.8652V17H32.0385V6.81818ZM41.2273 17.1591C43.2955 17.1591 44.6875 15.5881 44.6875 13.2216C44.6875 10.8352 43.2955 9.2642 41.2273 9.2642C39.1591 9.2642 37.7671 10.8352 37.7671 13.2216C37.7671 15.5881 39.1591 17.1591 41.2273 17.1591ZM41.2273 16.1051C39.6563 16.1051 38.9404 14.7528 38.9404 13.2216C38.9404 11.6903 39.6563 10.3182 41.2273 10.3182C42.7983 10.3182 43.5142 11.6903 43.5142 13.2216C43.5142 14.7528 42.7983 16.1051 41.2273 16.1051ZM46.4785 17H47.6518V12.1676C47.6518 11.1335 48.4672 10.3778 49.5808 10.3778C49.894 10.3778 50.2172 10.4375 50.2967 10.4574V9.2642C50.1625 9.25426 49.8542 9.24432 49.6802 9.24432C48.7655 9.24432 47.97 9.76136 47.6916 10.517H47.612V9.36364H46.4785V17ZM54.3386 17.1591C55.8102 17.1591 56.3074 16.2443 56.5659 15.8267H56.7051V17H57.8386V6.81818H56.6653V10.5767H56.5659C56.3074 10.179 55.85 9.2642 54.3585 9.2642C52.4295 9.2642 51.0971 10.7955 51.0971 13.2017C51.0971 15.6278 52.4295 17.1591 54.3386 17.1591ZM54.4977 16.1051C53.0261 16.1051 52.2704 14.8125 52.2704 13.1818C52.2704 11.571 53.0062 10.3182 54.4977 10.3182C55.9295 10.3182 56.6852 11.4716 56.6852 13.1818C56.6852 14.9119 55.9096 16.1051 54.4977 16.1051ZM63.3521 17.1591C64.9032 17.1591 66.0368 16.3835 66.3947 15.2301L65.2612 14.9119C64.9629 15.7074 64.2719 16.1051 63.3521 16.1051C61.975 16.1051 61.0254 15.2152 60.9707 13.5795H66.514V13.0824C66.514 10.2386 64.8237 9.2642 63.2328 9.2642C61.1646 9.2642 59.7924 10.8949 59.7924 13.2415C59.7924 15.5881 61.1447 17.1591 63.3521 17.1591ZM60.9707 12.5653C61.0503 11.3771 61.8905 10.3182 63.2328 10.3182C64.5055 10.3182 65.3209 11.2727 65.3209 12.5653H60.9707ZM68.2988 17H69.4721V12.1676C69.4721 11.1335 70.2875 10.3778 71.4011 10.3778C71.7143 10.3778 72.0375 10.4375 72.117 10.4574V9.2642C71.9828 9.25426 71.6745 9.24432 71.5005 9.24432C70.5858 9.24432 69.7903 9.76136 69.5119 10.517H69.4324V9.36364H68.2988V17ZM78.9169 11.0739C78.549 9.99006 77.7237 9.2642 76.2124 9.2642C74.6016 9.2642 73.4084 10.179 73.4084 11.4716C73.4084 12.5256 74.0348 13.2315 75.4368 13.5597L76.7095 13.858C77.4801 14.0369 77.8431 14.4048 77.8431 14.9318C77.8431 15.5881 77.147 16.125 76.0533 16.125C75.0938 16.125 74.4922 15.7124 74.2834 14.892L73.1698 15.1705C73.4432 16.468 74.5121 17.1591 76.0732 17.1591C77.848 17.1591 79.0561 16.1896 79.0561 14.8722C79.0561 13.8082 78.3899 13.1371 77.0277 12.804L75.8942 12.5256C74.9894 12.3018 74.5817 11.9986 74.5817 11.4119C74.5817 10.7557 75.2777 10.2784 76.2124 10.2784C77.2365 10.2784 77.6591 10.8452 77.8629 11.3722L78.9169 11.0739ZM88.0808 9.36364H86.4501V7.53409H85.2768V9.36364H84.1234V10.358H85.2768V15.1307C85.2768 16.4631 86.3507 17.0994 87.345 17.0994C87.7825 17.0994 88.0609 17.0199 88.22 16.9602L87.9814 15.9062C87.8819 15.9261 87.7228 15.9659 87.4643 15.9659C86.9473 15.9659 86.4501 15.8068 86.4501 14.8125V10.358H88.0808V9.36364ZM91.1831 12.4062C91.1831 11.0739 92.0332 10.3182 93.1916 10.3182C94.2953 10.3182 94.9615 11.0142 94.9615 12.2273V17H96.1348V12.1477C96.1348 10.1839 95.0907 9.2642 93.5297 9.2642C92.3265 9.2642 91.6405 9.76633 91.2825 10.5568H91.1831V6.81818H90.0098V17H91.1831V12.4062ZM98.2813 17H99.4546V9.36364H98.2813V17ZM98.8779 8.09091C99.3352 8.09091 99.7131 7.73295 99.7131 7.29545C99.7131 6.85795 99.3352 6.5 98.8779 6.5C98.4205 6.5 98.0426 6.85795 98.0426 7.29545C98.0426 7.73295 98.4205 8.09091 98.8779 8.09091ZM107.013 11.0739C106.645 9.99006 105.819 9.2642 104.308 9.2642C102.697 9.2642 101.504 10.179 101.504 11.4716C101.504 12.5256 102.131 13.2315 103.533 13.5597L104.805 13.858C105.576 14.0369 105.939 14.4048 105.939 14.9318C105.939 15.5881 105.243 16.125 104.149 16.125C103.189 16.125 102.588 15.7124 102.379 14.892L101.265 15.1705C101.539 16.468 102.608 17.1591 104.169 17.1591C105.944 17.1591 107.152 16.1896 107.152 14.8722C107.152 13.8082 106.486 13.1371 105.123 12.804L103.99 12.5256C103.085 12.3018 102.677 11.9986 102.677 11.4119C102.677 10.7557 103.373 10.2784 104.308 10.2784C105.332 10.2784 105.755 10.8452 105.959 11.3722L107.013 11.0739ZM112.855 17H114.029V12.2273C114.029 11.1087 114.844 10.3182 115.759 10.3182C116.649 10.3182 117.27 10.8999 117.27 11.7699V17H118.463V12.0284C118.463 11.044 119.08 10.3182 120.154 10.3182C120.989 10.3182 121.705 10.7607 121.705 11.8892V17H122.878V11.8892C122.878 10.0945 121.914 9.2642 120.552 9.2642C119.458 9.2642 118.657 9.76633 118.265 10.5568H118.185C117.807 9.74148 117.141 9.2642 116.137 9.2642C115.142 9.2642 114.407 9.74148 114.088 10.5568H113.989V9.36364H112.855V17ZM128.126 17.1591C130.194 17.1591 131.586 15.5881 131.586 13.2216C131.586 10.8352 130.194 9.2642 128.126 9.2642C126.058 9.2642 124.665 10.8352 124.665 13.2216C124.665 15.5881 126.058 17.1591 128.126 17.1591ZM128.126 16.1051C126.555 16.1051 125.839 14.7528 125.839 13.2216C125.839 11.6903 126.555 10.3182 128.126 10.3182C129.697 10.3182 130.413 11.6903 130.413 13.2216C130.413 14.7528 129.697 16.1051 128.126 16.1051ZM134.55 12.4062C134.55 11.0739 135.376 10.3182 136.499 10.3182C137.588 10.3182 138.249 11.0291 138.249 12.2273V17H139.422V12.1477C139.422 10.1989 138.383 9.2642 136.837 9.2642C135.684 9.2642 134.968 9.78125 134.61 10.5568H134.51V9.36364H133.377V17H134.55V12.4062ZM144.887 9.36364H143.257V7.53409H142.083V9.36364H140.93V10.358H142.083V15.1307C142.083 16.4631 143.157 17.0994 144.152 17.0994C144.589 17.0994 144.868 17.0199 145.027 16.9602L144.788 15.9062C144.689 15.9261 144.529 15.9659 144.271 15.9659C143.754 15.9659 143.257 15.8068 143.257 14.8125V10.358H144.887V9.36364ZM147.99 12.4062C147.99 11.0739 148.84 10.3182 149.998 10.3182C151.102 10.3182 151.768 11.0142 151.768 12.2273V17H152.941V12.1477C152.941 10.1839 151.897 9.2642 150.336 9.2642C149.133 9.2642 148.447 9.76633 148.089 10.5568H147.99V6.81818H146.816V17H147.99V12.4062Z" fill="#6E8BB7"/>
<path d="M9.59678 43.5455H6.12803L1.80701 46.2812V49.554L5.80417 47.0483H5.90644V61H9.59678V43.5455ZM16.8113 58.6136H13.8113L13.7687 59.5682C13.6664 61.8864 13.0016 64.2642 12.7545 65.2614H15.1067C15.5158 64.2301 16.4874 61.8097 16.7175 59.5511L16.8113 58.6136ZM25.905 61.2386C29.8425 61.2386 32.6721 59.1335 32.6806 56.304C32.6721 54.1222 30.9931 52.3409 28.8965 51.9915V51.8722C30.7204 51.4972 32.0243 49.9205 32.0329 48.0028C32.0243 45.3011 29.4334 43.3068 25.905 43.3068C22.3681 43.3068 19.7772 45.3011 19.7857 48.0028C19.7772 49.9119 21.0641 51.4972 22.9221 51.8722V51.9915C20.7914 52.3409 19.1295 54.1222 19.138 56.304C19.1295 59.1335 21.9675 61.2386 25.905 61.2386ZM25.905 58.5284C24.1493 58.5284 22.9732 57.4886 22.9732 56.0142C22.9732 54.5057 24.209 53.4148 25.905 53.4148C27.5925 53.4148 28.8368 54.5057 28.8368 56.0142C28.8368 57.4972 27.6522 58.5284 25.905 58.5284ZM25.905 50.7301C24.4306 50.7301 23.3823 49.767 23.3823 48.3864C23.3823 47.0227 24.4135 46.0852 25.905 46.0852C27.388 46.0852 28.4277 47.0312 28.4277 48.3864C28.4277 49.767 27.3709 50.7301 25.905 50.7301ZM41.6358 61.2386C45.5222 61.2386 48.1643 58.7074 48.1557 55.179C48.1643 51.8381 45.829 49.4347 42.6841 49.4347C41.15 49.4347 39.829 50.0739 39.2154 50.9347H39.1131L39.5648 46.5625H47.1927V43.5455H36.5222L35.6955 52.75L38.9768 53.3381C39.5137 52.6136 40.5535 52.1619 41.5847 52.1619C43.3404 52.1705 44.6018 53.4403 44.6018 55.2727C44.6018 57.0881 43.366 58.3409 41.6358 58.3409C40.1699 58.3409 38.9853 57.4205 38.9 56.0653H35.3205C35.3887 59.0824 38.0222 61.2386 41.6358 61.2386ZM57.5733 61.3835C61.9625 61.3835 64.6131 58.0426 64.6216 52.2898C64.6302 46.5795 61.9455 43.3068 57.5733 43.3068C53.1927 43.3068 50.5336 46.571 50.525 52.2898C50.508 58.0256 53.1756 61.375 57.5733 61.3835ZM57.5733 58.3239C55.5705 58.3239 54.275 56.3125 54.2836 52.2898C54.2921 48.3267 55.579 46.3324 57.5733 46.3324C59.5591 46.3324 60.8546 48.3267 60.8546 52.2898C60.8631 56.3125 59.5677 58.3239 57.5733 58.3239Z" fill="#303940"/>
<rect x="147.588" y="32" width="80" height="40" rx="12" fill="#F2271C" fill-opacity="0.1"/>
<path d="M165.142 52.0185H160.558V53.5H165.142V52.0185ZM170.554 57.1392C172.707 57.1392 174.208 55.6776 174.208 53.6541C174.208 51.6953 172.846 50.2834 170.997 50.2834C170.172 50.2834 169.441 50.6115 169.063 51.0589H169.003L169.297 48.3594H173.677V46.8182H167.77L167.238 52.0682L168.904 52.3416C169.247 51.9638 169.893 51.7102 170.505 51.7152C171.623 51.7202 172.429 52.5455 172.424 53.6989C172.429 54.8374 171.643 55.6477 170.554 55.6477C169.635 55.6477 168.894 55.0661 168.829 54.2308H167.039C167.089 55.9212 168.566 57.1392 170.554 57.1392ZM181.318 55.0909C181.323 56.2741 182.074 57.2834 183.471 57.2834C184.863 57.2834 185.628 56.2741 185.623 55.0909V54.554C185.628 53.3608 184.882 52.3615 183.471 52.3615C182.093 52.3615 181.323 53.3707 181.318 54.554V55.0909ZM176.142 49.2642C176.147 50.4474 176.898 51.4467 178.3 51.4467C179.687 51.4467 180.453 50.4574 180.448 49.2642V48.7273C180.453 47.5341 179.707 46.5348 178.3 46.5348C176.928 46.5348 176.147 47.5341 176.142 48.7273V49.2642ZM176.59 57H177.838L184.838 46.8182H183.59L176.59 57ZM182.615 54.554C182.62 54.027 182.844 53.495 183.471 53.495C184.127 53.495 184.321 54.027 184.316 54.554V55.0909C184.321 55.6179 184.107 56.1399 183.471 56.1399C182.834 56.1399 182.62 55.6129 182.615 55.0909V54.554ZM177.45 48.7273C177.455 48.2053 177.669 47.6683 178.3 47.6683C178.956 47.6683 179.145 48.2003 179.14 48.7273V49.2642C179.145 49.7912 178.936 50.3132 178.3 50.3132C177.664 50.3132 177.455 49.7912 177.45 49.2642V48.7273Z" fill="#F2271C"/>
<rect x="219.588" y="64" width="24" height="24" rx="12" transform="rotate(180 219.588 64)" fill="#F2271C" fill-opacity="0.15"/>
<path d="M205.002 50.1933L207.588 52.78L210.175 50.1933C210.435 49.9333 210.855 49.9333 211.115 50.1933C211.375 50.4533 211.375 50.8733 211.115 51.1333L208.055 54.1933C207.795 54.4533 207.375 54.4533 207.115 54.1933L204.055 51.1333C203.795 50.8733 203.795 50.4533 204.055 50.1933C204.315 49.94 204.742 49.9333 205.002 50.1933Z" fill="#F2271C"/>
</svg>
