<svg width="228" height="72" viewBox="0 0 228 72" fill="none" xmlns="http://www.w3.org/2000/svg">
<path d="M1.82121 17H8.04564V15.9062H3.05417V12.446H7.64792V11.3523H3.05417V7.91193H7.9661V6.81818H1.82121V17ZM12.2765 17.179C13.6089 17.179 14.3049 16.4631 14.5435 15.9659H14.6032V17H15.7765V11.9688C15.7765 9.54261 13.927 9.2642 12.9526 9.2642C11.7992 9.2642 10.4867 9.66193 9.8901 11.054L11.0037 11.4517C11.2623 10.8949 11.8738 10.2983 12.9924 10.2983C14.0712 10.2983 14.6032 10.87 14.6032 11.8494V11.8892C14.6032 12.456 14.0265 12.4062 12.6344 12.5852C11.2175 12.7692 9.67135 13.0824 9.67135 14.8324C9.67135 16.3239 10.8248 17.179 12.2765 17.179ZM12.4554 16.125C11.5208 16.125 10.8446 15.7074 10.8446 14.892C10.8446 13.9972 11.66 13.7188 12.5748 13.5994C13.0719 13.5398 14.4043 13.4006 14.6032 13.1619V14.2358C14.6032 15.1903 13.8475 16.125 12.4554 16.125ZM17.918 17H19.0913V12.1676C19.0913 11.1335 19.9066 10.3778 21.0203 10.3778C21.3335 10.3778 21.6566 10.4375 21.7362 10.4574V9.2642C21.6019 9.25426 21.2937 9.24432 21.1197 9.24432C20.2049 9.24432 19.4095 9.76136 19.131 10.517H19.0515V9.36364H17.918V17ZM24.3003 12.4062C24.3003 11.0739 25.1255 10.3182 26.2491 10.3182C27.3379 10.3182 27.9991 11.0291 27.9991 12.2273V17H29.1724V12.1477C29.1724 10.1989 28.1334 9.2642 26.5872 9.2642C25.4338 9.2642 24.7179 9.78125 24.3599 10.5568H24.2605V9.36364H23.127V17H24.3003V12.4062ZM31.3164 17H32.4897V9.36364H31.3164V17ZM31.913 8.09091C32.3704 8.09091 32.7482 7.73295 32.7482 7.29545C32.7482 6.85795 32.3704 6.5 31.913 6.5C31.4556 6.5 31.0778 6.85795 31.0778 7.29545C31.0778 7.73295 31.4556 8.09091 31.913 8.09091ZM35.812 12.4062C35.812 11.0739 36.6373 10.3182 37.7608 10.3182C38.8496 10.3182 39.5108 11.0291 39.5108 12.2273V17H40.6841V12.1477C40.6841 10.1989 39.6451 9.2642 38.0989 9.2642C36.9455 9.2642 36.2296 9.78125 35.8716 10.5568H35.7722V9.36364H34.6387V17H35.812V12.4062ZM45.9105 20.0227C47.7401 20.0227 49.2117 19.1875 49.2117 17.2188V9.36364H48.0781V10.5767H47.9588C47.7003 10.179 47.223 9.2642 45.7315 9.2642C43.8026 9.2642 42.4702 10.7955 42.4702 13.142C42.4702 15.5284 43.8622 16.8807 45.7117 16.8807C47.2031 16.8807 47.6804 16.0057 47.9389 15.5881H48.0384V17.1392C48.0384 18.4119 47.1435 18.9886 45.9105 18.9886C44.5234 18.9886 44.0362 18.2578 43.723 17.8352L42.7884 18.4915C43.2656 19.2919 44.2053 20.0227 45.9105 20.0227ZM45.8707 15.8267C44.3992 15.8267 43.6435 14.7131 43.6435 13.1222C43.6435 11.571 44.3793 10.3182 45.8707 10.3182C47.3026 10.3182 48.0582 11.4716 48.0582 13.1222C48.0582 14.8125 47.2827 15.8267 45.8707 15.8267ZM58.6179 9.36364H56.9872V7.53409H55.8139V9.36364H54.6605V10.358H55.8139V15.1307C55.8139 16.4631 56.8878 17.0994 57.8821 17.0994C58.3196 17.0994 58.598 17.0199 58.7571 16.9602L58.5185 15.9062C58.419 15.9261 58.26 15.9659 58.0014 15.9659C57.4844 15.9659 56.9872 15.8068 56.9872 14.8125V10.358H58.6179V9.36364ZM61.7202 12.4062C61.7202 11.0739 62.5703 10.3182 63.7287 10.3182C64.8324 10.3182 65.4986 11.0142 65.4986 12.2273V17H66.6719V12.1477C66.6719 10.1839 65.6279 9.2642 64.0668 9.2642C62.8636 9.2642 62.1776 9.76633 61.8196 10.5568H61.7202V6.81818H60.5469V17H61.7202V12.4062ZM68.8184 17H69.9917V9.36364H68.8184V17ZM69.415 8.09091C69.8723 8.09091 70.2502 7.73295 70.2502 7.29545C70.2502 6.85795 69.8723 6.5 69.415 6.5C68.9576 6.5 68.5797 6.85795 68.5797 7.29545C68.5797 7.73295 68.9576 8.09091 69.415 8.09091ZM77.5497 11.0739C77.1818 9.99006 76.3565 9.2642 74.8452 9.2642C73.2344 9.2642 72.0412 10.179 72.0412 11.4716C72.0412 12.5256 72.6676 13.2315 74.0696 13.5597L75.3423 13.858C76.1129 14.0369 76.4759 14.4048 76.4759 14.9318C76.4759 15.5881 75.7798 16.125 74.6861 16.125C73.7266 16.125 73.125 15.7124 72.9162 14.892L71.8026 15.1705C72.076 16.468 73.1449 17.1591 74.706 17.1591C76.4808 17.1591 77.6889 16.1896 77.6889 14.8722C77.6889 13.8082 77.0227 13.1371 75.6605 12.804L74.527 12.5256C73.6222 12.3018 73.2145 11.9986 73.2145 11.4119C73.2145 10.7557 73.9105 10.2784 74.8452 10.2784C75.8693 10.2784 76.2919 10.8452 76.4957 11.3722L77.5497 11.0739ZM83.3926 17H84.5659V12.2273C84.5659 11.1087 85.3812 10.3182 86.296 10.3182C87.1859 10.3182 87.8074 10.8999 87.8074 11.7699V17H89.0005V12.0284C89.0005 11.044 89.617 10.3182 90.6909 10.3182C91.5261 10.3182 92.242 10.7607 92.242 11.8892V17H93.4153V11.8892C93.4153 10.0945 92.4508 9.2642 91.0886 9.2642C89.9949 9.2642 89.1944 9.76633 88.8017 10.5568H88.7221C88.3443 9.74148 87.6781 9.2642 86.6738 9.2642C85.6795 9.2642 84.9437 9.74148 84.6255 10.5568H84.5261V9.36364H83.3926V17ZM98.6628 17.1591C100.731 17.1591 102.123 15.5881 102.123 13.2216C102.123 10.8352 100.731 9.2642 98.6628 9.2642C96.5946 9.2642 95.2026 10.8352 95.2026 13.2216C95.2026 15.5881 96.5946 17.1591 98.6628 17.1591ZM98.6628 16.1051C97.0918 16.1051 96.3759 14.7528 96.3759 13.2216C96.3759 11.6903 97.0918 10.3182 98.6628 10.3182C100.234 10.3182 100.95 11.6903 100.95 13.2216C100.95 14.7528 100.234 16.1051 98.6628 16.1051ZM105.087 12.4062C105.087 11.0739 105.913 10.3182 107.036 10.3182C108.125 10.3182 108.786 11.0291 108.786 12.2273V17H109.96V12.1477C109.96 10.1989 108.92 9.2642 107.374 9.2642C106.221 9.2642 105.505 9.78125 105.147 10.5568H105.048V9.36364H103.914V17H105.087V12.4062ZM115.425 9.36364H113.794V7.53409H112.621V9.36364H111.467V10.358H112.621V15.1307C112.621 16.4631 113.694 17.0994 114.689 17.0994C115.126 17.0994 115.405 17.0199 115.564 16.9602L115.325 15.9062C115.226 15.9261 115.067 15.9659 114.808 15.9659C114.291 15.9659 113.794 15.8068 113.794 14.8125V10.358H115.425V9.36364ZM118.527 12.4062C118.527 11.0739 119.377 10.3182 120.535 10.3182C121.639 10.3182 122.305 11.0142 122.305 12.2273V17H123.479V12.1477C123.479 10.1839 122.434 9.2642 120.873 9.2642C119.67 9.2642 118.984 9.76633 118.626 10.5568H118.527V6.81818H117.354V17H118.527V12.4062Z" fill="#6E8BB7"/>
<path d="M7.48314 63.1818H9.49451L9.51155 61.2131C13.2019 60.9318 15.3411 58.9716 15.3496 56.0142C15.3411 53.108 13.1508 51.5653 10.1167 50.8835L9.61383 50.7642L9.64792 46.5028C10.7814 46.767 11.4718 47.4915 11.5741 48.5653H15.111C15.0684 45.7443 12.9633 43.7244 9.68201 43.3665L9.69905 41.3636H7.68769L7.67064 43.3494C4.33826 43.6733 1.98598 45.6847 2.00303 48.5909C1.99451 51.1648 3.80985 52.6392 6.75871 53.3466L7.57689 53.5511L7.53428 58.0597C6.14508 57.7955 5.20758 56.9432 5.11383 55.5199H1.5428C1.62803 58.9631 3.88655 60.8892 7.50019 61.2045L7.48314 63.1818ZM9.54564 58.0597L9.57973 54.0795C10.9008 54.4972 11.6167 55.0341 11.6252 56.0057C11.6167 57.0369 10.8326 57.804 9.54564 58.0597ZM7.60246 50.2443C6.53712 49.8778 5.77008 49.3239 5.78712 48.3438C5.78712 47.4318 6.43485 46.7244 7.63655 46.4773L7.60246 50.2443ZM24.4285 61.2386C28.3148 61.2557 30.9654 58.7074 30.9569 55.1534C30.9654 51.8807 28.6813 49.5199 25.5875 49.5199C23.6699 49.5199 21.9739 50.4403 21.1898 51.983H21.0705C21.0875 48.5824 22.2807 46.4688 24.5563 46.4688C25.8944 46.4688 26.8574 47.2017 27.1387 48.4205H30.7779C30.4285 45.5483 28.0421 43.3068 24.5563 43.3068C20.2438 43.3068 17.4739 46.8011 17.4569 52.6648C17.4483 59.0568 20.8404 61.2216 24.4285 61.2386ZM24.4114 58.3409C22.7069 58.3409 21.4455 56.9688 21.4455 55.2642C21.454 53.5682 22.741 52.1875 24.437 52.1875C26.1415 52.1875 27.3858 53.5256 27.3773 55.2557C27.3858 57.0028 26.116 58.3409 24.4114 58.3409ZM36.8269 58.6136H33.8269L33.7843 59.5682C33.682 61.8864 33.0172 64.2642 32.7701 65.2614H35.1223C35.5314 64.2301 36.503 61.8097 36.7331 59.5511L36.8269 58.6136ZM40.1124 61H52.5556V57.983H45.226V57.8636L47.7743 55.3665C51.3624 52.0938 52.3255 50.4574 52.3255 48.4716C52.3255 45.446 49.8539 43.3068 46.1124 43.3068C42.4476 43.3068 39.9334 45.4972 39.942 48.9233H43.4448C43.4363 47.2528 44.4931 46.2301 46.0868 46.2301C47.6209 46.2301 48.763 47.1847 48.763 48.7188C48.763 50.108 47.9107 51.0625 46.3255 52.5881L40.1124 58.3409V61ZM61.6046 61.2386C65.491 61.2386 68.133 58.7074 68.1245 55.179C68.133 51.8381 65.7978 49.4347 62.6529 49.4347C61.1188 49.4347 59.7978 50.0739 59.1841 50.9347H59.0819L59.5336 46.5625H67.1614V43.5455H56.491L55.6643 52.75L58.9455 53.3381C59.4824 52.6136 60.5222 52.1619 61.5535 52.1619C63.3091 52.1705 64.5705 53.4403 64.5705 55.2727C64.5705 57.0881 63.3347 58.3409 61.6046 58.3409C60.1387 58.3409 58.954 57.4205 58.8688 56.0653H55.2893C55.3574 59.0824 57.991 61.2386 61.6046 61.2386ZM77.5421 61.3835C81.9313 61.3835 84.5819 58.0426 84.5904 52.2898C84.5989 46.5795 81.9143 43.3068 77.5421 43.3068C73.1614 43.3068 70.5023 46.571 70.4938 52.2898C70.4768 58.0256 73.1444 61.375 77.5421 61.3835ZM77.5421 58.3239C75.5393 58.3239 74.2438 56.3125 74.2523 52.2898C74.2608 48.3267 75.5478 46.3324 77.5421 46.3324C79.5279 46.3324 80.8233 48.3267 80.8233 52.2898C80.8319 56.3125 79.5364 58.3239 77.5421 58.3239Z" fill="#303940"/>
<rect x="136.588" y="32" width="91" height="40" rx="12" fill="#1AC19D" fill-opacity="0.15"/>
<path d="M152.516 56.3984H154.077V53.7386H156.737V52.1776H154.077V49.5178H152.516V52.1776H149.856V53.7386H152.516V56.3984ZM158.571 57H165.551V55.4588H161.117V55.3892L162.872 53.6044C164.85 51.7053 165.397 50.7805 165.397 49.6321C165.397 47.9268 164.01 46.679 161.962 46.679C159.943 46.679 158.512 47.9318 158.512 49.8658H160.267C160.267 48.8267 160.923 48.1754 161.937 48.1754C162.906 48.1754 163.627 48.767 163.627 49.7266C163.627 50.5767 163.11 51.1832 162.106 52.2024L158.571 55.6676V57ZM170.806 57.1392C172.959 57.1392 174.46 55.6776 174.46 53.6541C174.46 51.6953 173.098 50.2834 171.249 50.2834C170.423 50.2834 169.693 50.6115 169.315 51.0589H169.255L169.548 48.3594H173.928V46.8182H168.022L167.49 52.0682L169.156 52.3416C169.499 51.9638 170.145 51.7102 170.757 51.7152C171.875 51.7202 172.681 52.5455 172.676 53.6989C172.681 54.8374 171.895 55.6477 170.806 55.6477C169.887 55.6477 169.146 55.0661 169.081 54.2308H167.291C167.341 55.9212 168.818 57.1392 170.806 57.1392ZM181.57 55.0909C181.575 56.2741 182.325 57.2834 183.722 57.2834C185.115 57.2834 185.88 56.2741 185.875 55.0909V54.554C185.88 53.3608 185.134 52.3615 183.722 52.3615C182.345 52.3615 181.575 53.3707 181.57 54.554V55.0909ZM176.394 49.2642C176.399 50.4474 177.15 51.4467 178.552 51.4467C179.939 51.4467 180.705 50.4574 180.7 49.2642V48.7273C180.705 47.5341 179.959 46.5348 178.552 46.5348C177.18 46.5348 176.399 47.5341 176.394 48.7273V49.2642ZM176.842 57H178.09L185.09 46.8182H183.842L176.842 57ZM182.867 54.554C182.872 54.027 183.096 53.495 183.722 53.495C184.379 53.495 184.573 54.027 184.568 54.554V55.0909C184.573 55.6179 184.359 56.1399 183.722 56.1399C183.086 56.1399 182.872 55.6129 182.867 55.0909V54.554ZM177.702 48.7273C177.707 48.2053 177.921 47.6683 178.552 47.6683C179.208 47.6683 179.397 48.2003 179.392 48.7273V49.2642C179.397 49.7912 179.188 50.3132 178.552 50.3132C177.916 50.3132 177.707 49.7912 177.702 49.2642V48.7273Z" fill="#1AC19D"/>
<rect x="195.588" y="40" width="24" height="24" rx="12" fill="#1AC19D" fill-opacity="0.2"/>
<path d="M210.175 53.8067L207.588 51.22L205.002 53.8067C204.742 54.0667 204.322 54.0667 204.062 53.8067C203.802 53.5467 203.802 53.1267 204.062 52.8667L207.122 49.8067C207.382 49.5467 207.802 49.5467 208.062 49.8067L211.122 52.8667C211.382 53.1267 211.382 53.5467 211.122 53.8067C210.862 54.06 210.435 54.0667 210.175 53.8067Z" fill="#1AC19D"/>
</svg>
