<svg width="72" height="72" viewBox="0 0 72 72" fill="none" xmlns="http://www.w3.org/2000/svg">
<rect width="72" height="72" rx="6" fill="#4094F7" fill-opacity="0.15"/>
<g clip-path="url(#clip0_425_504)">
<path d="M35.7334 34.5333C32.7067 33.7467 31.7334 32.9333 31.7334 31.6667C31.7334 30.2133 33.0801 29.2 35.3334 29.2C37.2267 29.2 38.1734 29.92 38.5201 31.0667C38.6801 31.6 39.1201 32 39.6801 32H40.0801C40.9601 32 41.5867 31.1333 41.2801 30.3067C40.7201 28.7333 39.4134 27.4267 37.3334 26.92V26C37.3334 24.8933 36.4401 24 35.3334 24C34.2267 24 33.3334 24.8933 33.3334 26V26.88C30.7467 27.44 28.6667 29.12 28.6667 31.6933C28.6667 34.7733 31.2134 36.3067 34.9334 37.2C38.2667 38 38.9334 39.1733 38.9334 40.4133C38.9334 41.3333 38.2801 42.8 35.3334 42.8C33.1334 42.8 32.0001 42.0133 31.5601 40.8933C31.3601 40.3733 30.9067 40 30.3601 40H29.9867C29.0934 40 28.4667 40.9067 28.8001 41.7333C29.5601 43.5867 31.3334 44.68 33.3334 45.1067V46C33.3334 47.1067 34.2267 48 35.3334 48C36.4401 48 37.3334 47.1067 37.3334 46V45.1333C39.9334 44.64 42.0001 43.1333 42.0001 40.4C42.0001 36.6133 38.7601 35.32 35.7334 34.5333Z" fill="#4094F7"/>
</g>
<defs>
<clipPath id="clip0_425_504">
<rect width="32" height="32" fill="white" transform="translate(20 20)"/>
</clipPath>
</defs>
</svg>
