<svg width="72" height="72" viewBox="0 0 72 72" fill="none" xmlns="http://www.w3.org/2000/svg">
<rect width="72" height="72" rx="6" fill="#4094F7" fill-opacity="0.15"/>
<g clip-path="url(#clip0_88_4934)">
<path d="M36.0001 49.3333C37.4667 49.3333 38.6667 48.1333 38.6667 46.6666H33.3334C33.3334 48.1333 34.5201 49.3333 36.0001 49.3333ZM44.0001 41.3333V34.6666C44.0001 30.5733 41.8134 27.1466 38.0001 26.24V25.3333C38.0001 24.2266 37.1067 23.3333 36.0001 23.3333C34.8934 23.3333 34.0001 24.2266 34.0001 25.3333V26.24C30.1734 27.1466 28.0001 30.56 28.0001 34.6666V41.3333L26.2801 43.0533C25.4401 43.8933 26.0267 45.3333 27.2134 45.3333H44.7734C45.9601 45.3333 46.5601 43.8933 45.7201 43.0533L44.0001 41.3333Z" fill="#4094F7"/>
</g>
<defs>
<clipPath id="clip0_88_4934">
<rect width="32" height="32" fill="white" transform="translate(20 20)"/>
</clipPath>
</defs>
</svg>
