<svg width="72" height="72" viewBox="0 0 72 72" fill="none" xmlns="http://www.w3.org/2000/svg">
<rect width="72" height="72" rx="6" fill="#4094F7" fill-opacity="0.15"/>
<path d="M34.6667 30.6667C34.6667 31.7276 34.2452 32.745 33.4951 33.4951C32.7449 34.2453 31.7275 34.6667 30.6667 34.6667C29.6058 34.6667 28.5884 34.2453 27.8382 33.4951C27.0881 32.745 26.6667 31.7276 26.6667 30.6667C26.6667 29.6058 27.0881 28.5884 27.8382 27.8383C28.5884 27.0881 29.6058 26.6667 30.6667 26.6667C31.7275 26.6667 32.7449 27.0881 33.4951 27.8383C34.2452 28.5884 34.6667 29.6058 34.6667 30.6667ZM45.3333 30.6667C45.3333 31.192 45.2299 31.7121 45.0289 32.1974C44.8278 32.6827 44.5332 33.1237 44.1618 33.4951C43.7903 33.8665 43.3494 34.1612 42.8641 34.3622C42.3788 34.5632 41.8586 34.6667 41.3333 34.6667C40.808 34.6667 40.2879 34.5632 39.8026 34.3622C39.3173 34.1612 38.8763 33.8665 38.5049 33.4951C38.1335 33.1237 37.8388 32.6827 37.6378 32.1974C37.4368 31.7121 37.3333 31.192 37.3333 30.6667C37.3333 29.6058 37.7548 28.5884 38.5049 27.8383C39.2551 27.0881 40.2725 26.6667 41.3333 26.6667C42.3942 26.6667 43.4116 27.0881 44.1618 27.8383C44.9119 28.5884 45.3333 29.6058 45.3333 30.6667ZM39.9067 45.3334C39.968 44.8974 40 44.4534 40 44C40.0031 41.9052 39.2983 39.8707 38 38.2267C39.0134 37.6416 40.1631 37.3335 41.3333 37.3335C42.5035 37.3335 43.6531 37.6415 44.6666 38.2266C45.68 38.8117 46.5216 39.6533 47.1068 40.6667C47.6919 41.6802 48 42.8298 48 44V45.3334H39.9067ZM30.6667 37.3334C32.4348 37.3334 34.1305 38.0357 35.3807 39.286C36.631 40.5362 37.3333 42.2319 37.3333 44V45.3334H24V44C24 42.2319 24.7024 40.5362 25.9526 39.286C27.2029 38.0357 28.8986 37.3334 30.6667 37.3334Z" fill="#4094F7"/>
</svg>
