<svg width="72" height="72" viewBox="0 0 72 72" fill="none" xmlns="http://www.w3.org/2000/svg">
<rect width="72" height="72" rx="6" fill="#4094F7" fill-opacity="0.15"/>
<g clip-path="url(#clip0_88_4942)">
<path d="M45.2267 28.0134C44.96 27.2267 44.2133 26.6667 43.3333 26.6667H28.6667C27.7867 26.6667 27.0533 27.2267 26.7733 28.0134L24.1467 35.5734C24.0533 35.8534 24 36.1467 24 36.4534V46C24 47.1067 24.8933 48 26 48C27.1067 48 28 47.1067 28 46V45.3334H44V46C44 47.0934 44.8933 48 46 48C47.0933 48 48 47.1067 48 46V36.4534C48 36.16 47.9467 35.8534 47.8533 35.5734L45.2267 28.0134ZM28.6667 41.3334C27.56 41.3334 26.6667 40.44 26.6667 39.3334C26.6667 38.2267 27.56 37.3334 28.6667 37.3334C29.7733 37.3334 30.6667 38.2267 30.6667 39.3334C30.6667 40.44 29.7733 41.3334 28.6667 41.3334ZM43.3333 41.3334C42.2267 41.3334 41.3333 40.44 41.3333 39.3334C41.3333 38.2267 42.2267 37.3334 43.3333 37.3334C44.44 37.3334 45.3333 38.2267 45.3333 39.3334C45.3333 40.44 44.44 41.3334 43.3333 41.3334ZM26.6667 34.6667L28.36 29.5734C28.5467 29.04 29.0533 28.6667 29.6267 28.6667H42.3733C42.9467 28.6667 43.4533 29.04 43.64 29.5734L45.3333 34.6667H26.6667Z" fill="#4094F7"/>
</g>
<defs>
<clipPath id="clip0_88_4942">
<rect width="32" height="32" fill="white" transform="translate(20 20)"/>
</clipPath>
</defs>
</svg>
