<svg width="72" height="72" viewBox="0 0 72 72" fill="none" xmlns="http://www.w3.org/2000/svg">
<rect width="72" height="72" rx="6" fill="#4094F7" fill-opacity="0.15"/>
<g clip-path="url(#clip0_425_518)">
<path d="M36.6666 29.2C38.56 29.2 39.5066 29.92 39.8533 31.0667C40.0266 31.64 40.6 32 41.2 32H41.28C42.2133 32 42.9066 31.0533 42.5733 30.1867C41.9866 28.6533 40.6933 27.4133 38.6666 26.92V26C38.6666 24.8933 37.7733 24 36.6666 24C35.56 24 34.6666 24.8933 34.6666 26V26.88C34.1466 26.9867 33.6666 27.16 33.2 27.36L35.2133 29.3733C35.64 29.2667 36.1333 29.2 36.6666 29.2ZM26.36 26.16C25.84 26.68 25.84 27.52 26.36 28.04L30 31.6933C30 34.4667 32.08 35.9867 35.2133 36.9067L39.8933 41.5867C39.44 42.24 38.4933 42.8 36.6666 42.8C34.4666 42.8 33.3333 42.0133 32.8933 40.8933C32.6933 40.3733 32.24 40 31.6933 40H31.4666C30.5066 40 29.8133 40.9867 30.2 41.8533C30.9866 43.6267 32.72 44.68 34.68 45.1067V46C34.68 47.1067 35.5733 48 36.68 48C37.7866 48 38.68 47.1067 38.68 46V45.1333C39.96 44.8933 41.12 44.4 41.96 43.64L43.9733 45.6533C44.4933 46.1733 45.3333 46.1733 45.8533 45.6533C46.3733 45.1333 46.3733 44.2933 45.8533 43.7733L28.24 26.16C27.72 25.64 26.88 25.64 26.36 26.16Z" fill="#4094F7"/>
</g>
<defs>
<clipPath id="clip0_425_518">
<rect width="32" height="32" fill="white" transform="translate(20 20)"/>
</clipPath>
</defs>
</svg>
