<svg width="72" height="72" viewBox="0 0 72 72" fill="none" xmlns="http://www.w3.org/2000/svg">
<rect width="72" height="72" rx="6" fill="#4094F7" fill-opacity="0.15"/>
<g clip-path="url(#clip0_425_510)">
<path d="M29.3333 43.9998C27.8666 43.9998 26.6799 45.1998 26.6799 46.6665C26.6799 48.1332 27.8666 49.3332 29.3333 49.3332C30.7999 49.3332 31.9999 48.1332 31.9999 46.6665C31.9999 45.1998 30.7999 43.9998 29.3333 43.9998ZM21.3333 23.9998C21.3333 24.7332 21.9333 25.3332 22.6666 25.3332H23.9999L28.7999 35.4532L26.9999 38.7065C26.0266 40.4932 27.3066 42.6665 29.3333 42.6665H43.9999C44.7332 42.6665 45.3333 42.0665 45.3333 41.3332C45.3333 40.5998 44.7332 39.9998 43.9999 39.9998H29.3333L30.7999 37.3332H40.7333C41.7333 37.3332 42.6132 36.7865 43.0666 35.9598L47.8399 27.3065C48.3333 26.4265 47.6933 25.3332 46.6799 25.3332H26.9466L26.0533 23.4265C25.8399 22.9598 25.3599 22.6665 24.8533 22.6665H22.6666C21.9333 22.6665 21.3333 23.2665 21.3333 23.9998ZM42.6666 43.9998C41.1999 43.9998 40.0133 45.1998 40.0133 46.6665C40.0133 48.1332 41.1999 49.3332 42.6666 49.3332C44.1333 49.3332 45.3333 48.1332 45.3333 46.6665C45.3333 45.1998 44.1333 43.9998 42.6666 43.9998Z" fill="#4094F7"/>
</g>
<defs>
<clipPath id="clip0_425_510">
<rect width="32" height="32" fill="white" transform="translate(20 20)"/>
</clipPath>
</defs>
</svg>
