<svg width="72" height="72" viewBox="0 0 72 72" fill="none" xmlns="http://www.w3.org/2000/svg">
<rect width="72" height="72" rx="6" fill="#4094F7" fill-opacity="0.15"/>
<path d="M49.2149 27.4364V22.8614C49.2149 22.2292 48.7041 21.7185 48.072 21.7185H23.9292C23.297 21.7185 22.7863 22.2292 22.7863 22.8614V27.4364C22.1899 27.4721 21.7149 27.9685 21.7149 28.5756V33.2792C21.7126 34.1437 21.8876 34.9994 22.2292 35.7935C22.3827 36.1578 22.572 36.5006 22.7863 36.8256V49.1471C22.7863 49.7756 23.297 50.2899 23.9292 50.2899H48.072C48.7041 50.2899 49.2149 49.7792 49.2149 49.1471V36.8256C49.4325 36.4998 49.6191 36.1543 49.772 35.7935C50.1113 34.9971 50.2863 34.1506 50.2863 33.2792V28.5756C50.2863 27.9685 49.8113 27.4721 49.2149 27.4364ZM25.3577 24.2899H46.6434V27.4328H25.3577V24.2899ZM38.2863 47.7221H33.7149V44.0042H38.2863V47.7221ZM46.6434 47.7221H40.572V42.8614C40.572 42.2292 40.0613 41.7185 39.4291 41.7185H32.572C31.9399 41.7185 31.4292 42.2292 31.4292 42.8614V47.7221H25.3577V39.0721C25.4613 39.1221 25.5684 39.1721 25.6792 39.2149C26.4756 39.5506 27.322 39.7185 28.1934 39.7185C29.0649 39.7185 29.9077 39.5506 30.7077 39.2149C31.2006 39.0078 31.6649 38.7435 32.0899 38.4256C32.097 38.4221 32.1042 38.4221 32.1113 38.4256C32.5376 38.7449 33.0019 39.01 33.4934 39.2149C34.2899 39.5506 35.1363 39.7185 36.0077 39.7185C36.8792 39.7185 37.722 39.5506 38.522 39.2149C39.0149 39.0078 39.4791 38.7435 39.9042 38.4256C39.9113 38.4221 39.9184 38.4221 39.9256 38.4256C40.3519 38.7449 40.8162 39.01 41.3077 39.2149C42.1041 39.5506 42.9506 39.7185 43.822 39.7185C44.6934 39.7185 45.5363 39.5506 46.3363 39.2149C46.4434 39.1685 46.5506 39.1221 46.6577 39.0721V47.7221H46.6434ZM47.7149 33.2792C47.7149 35.4149 45.9649 37.1471 43.8113 37.1471C42.3542 37.1471 41.0827 36.3578 40.4113 35.1864C40.3077 35.0078 40.122 34.8971 39.9149 34.8971H39.8934C39.6899 34.8971 39.5006 35.0078 39.397 35.1864C39.0544 35.7839 38.5596 36.2801 37.9631 36.6245C37.3665 36.9689 36.6894 37.1492 36.0006 37.1471C34.547 37.1471 33.2792 36.3614 32.6077 35.1935C32.5006 35.0114 32.3077 34.8971 32.097 34.8971C31.8863 34.8971 31.6899 35.0114 31.5863 35.1935C31.2417 35.7888 30.7463 36.2828 30.15 36.6257C29.5538 36.9687 28.8777 37.1485 28.1899 37.1471C26.0363 37.1471 24.2863 35.4149 24.2863 33.2792V30.0221C24.2863 30.0114 24.2934 30.0042 24.3042 30.0042H47.697C47.7077 30.0042 47.7149 30.0114 47.7149 30.0221V33.2792Z" fill="#4094F7"/>
</svg>
